<?xml version="1.0" encoding="UTF-8"?>
<svg id="Capa_1" xmlns="http://www.w3.org/2000/svg" version="1.1" viewBox="0 0 100 100">
  <!-- Generator: Adobe Illustrator 29.6.0, SVG Export Plug-In . SVG Version: 2.1.1 Build 207)  -->
  <defs>
    <style>
      .st0 {
        fill: #1f1f1d;
      }
    </style>
  </defs>
  <polygon class="st0" points="49.95 56.72 49.99 56.75 49.97 56.76 49.95 56.72"/>
  <g>
    <polygon class="st0" points="28.35 44.24 19.07 38.89 19.07 53.25 28.35 44.24"/>
    <polygon class="st0" points="50 56.74 50 56.75 49.99 56.75 49.97 56.76 49.95 56.72 41.97 52.12 19.28 74.16 49.89 92.03 80.93 74.05 80.93 38.63 50 56.74"/>
  </g>
  <path class="st0" d="M70.24,13.92c-3.85-3.96-8.96-5.95-14.08-5.95s-9.86,1.84-13.68,5.55c-6.81,6.62-7.79,16.97-2.86,24.67l-20.47,19.88v10.96l25.94-25.2c3.32,2.27,7.19,3.41,11.06,3.41,4.93,0,9.86-1.84,13.68-5.55,7.78-7.56,7.96-19.99.4-27.76ZM65.97,37.7c-2.74,2.66-6.28,3.98-9.81,3.98s-7.34-1.43-10.1-4.27c-5.42-5.58-5.29-14.49.29-19.91,2.74-2.66,6.28-3.98,9.81-3.98,3.67,0,7.34,1.43,10.1,4.27,5.42,5.58,5.29,14.49-.29,19.91Z"/>
</svg>