<?xml version="1.0" encoding="UTF-8"?>
<svg id="Capa_1" xmlns="http://www.w3.org/2000/svg" version="1.1" viewBox="0 0 100 100">
  <!-- Generator: Adobe Illustrator 29.6.0, SVG Export Plug-In . SVG Version: 2.1.1 Build 207)  -->
  <defs>
    <style>
      .st0 {
        fill: #1f1f1d;
      }
    </style>
  </defs>
  <path class="st0" d="M67.32,32.71l8.88-5.77c-1.2-1.52-2.5-2.95-3.92-4.27l-6.52,8.35c.54.54,1.06,1.11,1.55,1.7Z"/>
  <path class="st0" d="M58.59,25.88c.69.34,1.37.7,2.02,1.1l6.52-8.35c-1.62-1.05-3.32-1.98-5.09-2.77l-3.45,10.02Z"/>
  <path class="st0" d="M50.12,23.38c.77.09,1.53.22,2.27.37l3.45-10.02c-1.86-.46-3.77-.78-5.72-.95v10.6Z"/>
  <path class="st0" d="M90.45,57.35l-12.87-20.18-12.72,20.19h7.67c-3.22,11.16-13.5,19.32-25.69,19.32-14.78,0-26.75-11.98-26.75-26.75,0-13.67,10.25-24.93,23.48-26.55v-10.6C24.51,14.44,9.55,30.43,9.55,49.92c0,20.6,16.7,37.3,37.3,37.3,18.05,0,33.09-12.83,36.54-29.87h7.07Z"/>
</svg>