<?xml version="1.0" encoding="UTF-8"?>
<svg id="Capa_1" xmlns="http://www.w3.org/2000/svg" version="1.1" viewBox="0 0 100 100">
  <!-- Generator: Adobe Illustrator 29.6.0, SVG Export Plug-In . SVG Version: 2.1.1 Build 207)  -->
  <defs>
    <style>
      .st0 {
        fill: #1f1f1d;
      }
    </style>
  </defs>
  <polygon class="st0" points="21.29 81.91 10.71 83.78 10.71 24.46 21.29 22.59 21.29 81.91"/>
  <polygon class="st0" points="39.35 78.73 28.76 80.6 28.76 39.25 39.35 37.39 39.35 78.73"/>
  <polygon class="st0" points="75.47 72.36 64.88 74.23 64.88 50.4 75.47 48.54 75.47 72.36"/>
  <g>
    <polygon class="st0" points="46.82 37.3 46.82 77.41 57.41 75.54 57.41 46.02 46.82 37.3"/>
    <polygon class="st0" points="57.41 26.23 57.41 16.22 47.4 17.99 57.41 26.23"/>
  </g>
  <polygon class="st0" points="66.58 38.55 41.43 17.83 28.76 32.72 39.02 30.92 41.43 28.09 66.58 48.81 82.11 30.54 85.18 33.06 89.29 16.96 73.92 23.79 76.98 26.31 66.58 38.55"/>
</svg>